<svg width="16" height="16" viewBox="0 0 16 16" fill="none" xmlns="http://www.w3.org/2000/svg">
<path d="M1.83203 7.99967C1.83203 4.60248 4.60151 1.83301 7.9987 1.83301C11.3959 1.83301 14.1654 4.60248 14.1654 7.99967C14.1654 11.3969 11.3959 14.1663 7.9987 14.1663C4.60151 14.1663 1.83203 11.3969 1.83203 7.99967ZM10.5923 10.5932C10.9808 10.2046 10.9808 9.56805 10.5923 9.17945L9.41247 7.99967L10.5923 6.81989C10.9808 6.4313 10.9808 5.79472 10.5923 5.40612C10.2037 5.01753 9.56707 5.01753 9.17848 5.40612L7.9987 6.5859L6.81892 5.40612C6.43032 5.01753 5.79374 5.01753 5.40515 5.40612C5.01655 5.79472 5.01655 6.4313 5.40515 6.81989L6.58492 7.99967L5.40515 9.17945C5.01655 9.56805 5.01655 10.2046 5.40514 10.5932C5.60385 10.7919 5.85991 10.8863 6.11203 10.8863C6.36415 10.8863 6.62021 10.7919 6.81892 10.5932L7.9987 9.41345L9.17848 10.5932C9.37719 10.7919 9.63325 10.8863 9.88536 10.8863C10.1375 10.8863 10.3935 10.7919 10.5923 10.5932Z" fill="#F03738" stroke="#F03738"/>
</svg>
