<svg width="16" height="16" viewBox="0 0 16 16" fill="none" xmlns="http://www.w3.org/2000/svg">
<path d="M11.5389 6.81989L11.539 6.81995L11.5449 6.81385C11.9223 6.4234 11.9308 5.79796 11.5389 5.40612C11.1503 5.01753 10.5137 5.01753 10.1251 5.40612L7.05203 8.47923L5.87225 7.29945C5.48366 6.91086 4.84707 6.91086 4.45848 7.29945C4.06988 7.68805 4.06988 8.32463 4.45848 8.71323L6.34514 10.5999L6.6987 10.2463L6.34515 10.5999C6.53118 10.7859 6.78458 10.893 7.05203 10.893C7.31948 10.893 7.57289 10.7859 7.75892 10.5999L11.5389 6.81989ZM1.83203 7.99967C1.83203 4.60248 4.60151 1.83301 7.9987 1.83301C11.3959 1.83301 14.1654 4.60248 14.1654 7.99967C14.1654 11.3969 11.3959 14.1663 7.9987 14.1663C4.60151 14.1663 1.83203 11.3969 1.83203 7.99967Z" fill="#169D1B" stroke="#169D1B"/>
</svg>
