<svg width="21" height="20" viewBox="0 0 21 20" fill="none" xmlns="http://www.w3.org/2000/svg">
<path d="M11.75 3.3335C11.75 4.02385 11.1904 4.5835 10.5 4.5835C9.80964 4.5835 9.25 4.02385 9.25 3.3335C9.25 2.64314 9.80964 2.0835 10.5 2.0835C11.1904 2.0835 11.75 2.64314 11.75 3.3335Z" fill="black"/>
<path d="M11.75 10.0002C11.75 10.6905 11.1904 11.2502 10.5 11.2502C9.80964 11.2502 9.25 10.6905 9.25 10.0002C9.25 9.30981 9.80964 8.75016 10.5 8.75016C11.1904 8.75016 11.75 9.30981 11.75 10.0002Z" fill="black"/>
<path d="M10.5 17.9168C11.1904 17.9168 11.75 17.3572 11.75 16.6668C11.75 15.9765 11.1904 15.4168 10.5 15.4168C9.80964 15.4168 9.25 15.9765 9.25 16.6668C9.25 17.3572 9.80964 17.9168 10.5 17.9168Z" fill="black"/>
</svg>
