<svg width="20" height="20" viewBox="0 0 20 20" fill="none" xmlns="http://www.w3.org/2000/svg">
<g clip-path="url(#clip0_2190_9531)">
<path d="M7.50004 5.8335H5.00004C4.55801 5.8335 4.13409 6.00909 3.82153 6.32165C3.50897 6.63421 3.33337 7.05814 3.33337 7.50016V15.0002C3.33337 15.4422 3.50897 15.8661 3.82153 16.1787C4.13409 16.4912 4.55801 16.6668 5.00004 16.6668H12.5C12.9421 16.6668 13.366 16.4912 13.6786 16.1787C13.9911 15.8661 14.1667 15.4422 14.1667 15.0002V12.5002" stroke="black" stroke-width="2" stroke-linecap="round" stroke-linejoin="round"/>
<path d="M7.5 12.5H10L17.0833 5.41669C17.4149 5.08517 17.6011 4.63553 17.6011 4.16669C17.6011 3.69785 17.4149 3.24821 17.0833 2.91669C16.7518 2.58517 16.3022 2.39893 15.8333 2.39893C15.3645 2.39893 14.9149 2.58517 14.5833 2.91669L7.5 10V12.5Z" stroke="black" stroke-width="2" stroke-linecap="round" stroke-linejoin="round"/>
<path d="M13.3334 4.1665L15.8334 6.6665" stroke="black" stroke-width="2" stroke-linecap="round" stroke-linejoin="round"/>
</g>
<defs>
<clipPath id="clip0_2190_9531">
<rect width="20" height="20" fill="white"/>
</clipPath>
</defs>
</svg>
