<svg width="20" height="20" viewBox="0 0 20 20" fill="none" xmlns="http://www.w3.org/2000/svg">
<path d="M1.66663 12.5C1.66663 14.8012 3.53211 16.6667 5.83329 16.6667H6.31199C6.40225 16.2689 6.59132 15.8877 6.88144 15.5613C7.06443 15.3554 7.27381 15.1869 7.49996 15.0564V12.5C7.49996 11.1193 8.61925 10 9.99996 10C11.3807 10 12.5 11.1193 12.5 12.5V15.0564C12.7261 15.1869 12.9355 15.3554 13.1185 15.5613C13.4056 15.8844 13.5938 16.2611 13.6851 16.6545C16.2824 16.4739 18.3333 14.3098 18.3333 11.6667C18.3333 9.45558 16.8981 7.57971 14.9084 6.91983C14.4405 4.40443 12.2343 2.5 9.58329 2.5C6.59175 2.5 4.16663 4.92512 4.16663 7.91667C4.16663 8.1683 4.18378 8.41592 4.21699 8.65843C2.71856 9.28964 1.66663 10.772 1.66663 12.5Z" fill="#344054"/>
<path d="M11.8036 17.8451L10.5536 18.9562C10.2379 19.2368 9.76206 19.2368 9.44632 18.9562L8.19632 17.8451C7.85234 17.5393 7.82135 17.0126 8.12712 16.6686C8.39461 16.3677 8.83121 16.3063 9.16663 16.5003V12.5C9.16663 12.0398 9.53972 11.6667 9.99996 11.6667C10.4602 11.6667 10.8333 12.0398 10.8333 12.5V16.5003C11.1687 16.3063 11.6053 16.3677 11.8728 16.6686C12.1786 17.0126 12.1476 17.5393 11.8036 17.8451Z" fill="#344054"/>
</svg>
