<svg width="16" height="16" viewBox="0 0 16 16" fill="none" xmlns="http://www.w3.org/2000/svg">
<g clip-path="url(#clip0_2432_296908)">
<path d="M5.82467 13.4532L5.8248 13.4534C6.4356 14.0411 7.21692 14.3337 7.99811 14.3337C8.77973 14.3337 9.55993 14.0409 10.1631 13.455L10.1649 13.4532C12.0442 11.6462 13.9755 8.91243 13.2572 5.74422C12.6209 2.94533 10.184 1.66699 7.99811 1.66699H7.99811H7.9981H7.9981H7.9981H7.99809H7.99809H7.99808H7.99808H7.99807H7.99807H7.99807H7.99806H7.99806H7.99805H7.99805H7.99804H7.99804H7.99803H7.99803H7.99803H7.99802H7.99802H7.99801H7.99801H7.998H7.998H7.99799H7.99799H7.99798H7.99798H7.99797H7.99797H7.99796H7.99795H7.99795H7.99794H7.99793H7.99793H7.99792H7.99791H7.99791H7.99791H7.9979H7.9979H7.9979H7.99789H7.99789H7.99788H7.99788H7.99788H7.99787H7.99787H7.99786H7.99786H7.99785H7.99785H7.99784H7.99784H7.99784H7.99783H7.99783H7.99782H7.99782H7.99781H7.99781H7.9978H7.9978H7.99779H7.99779H7.99778H7.99778H7.99777H7.99776H7.99776H7.99775H7.99775H7.99774H7.99774H7.99773H7.99773H7.99772H7.99771H7.99771H7.9977H7.99769H7.99769H7.99768H7.99768H7.99767H7.99766H7.99766H7.99765H7.99764H7.99764H7.99763H7.99762H7.99762H7.99761H7.9976H7.9976H7.99759H7.99758H7.99757H7.99757H7.99756H7.99755H7.99754H7.99754H7.99753H7.99752H7.99751H7.99751H7.9975H7.99749H7.99748H7.99747H7.99747H7.99746H7.99745H7.99744H7.99743H7.99742H7.99742H7.99741H7.9974H7.99739H7.99738H7.99737H7.99736H7.99735H7.99734H7.99733H7.99732H7.99732H7.99731H7.9973H7.99729H7.99728H7.99727H7.99726H7.99725H7.99724H7.99723H7.99722H7.99721H7.9972H7.99719H7.99718H7.99717H7.99715H7.99714H7.99713H7.99712H7.99711H7.9971H7.99709H7.99708H7.99707H7.99705H7.99704H7.99703H7.99702H7.99701H7.997H7.99698H7.99697H7.99696H7.99695H7.99694H7.99692H7.99691H7.9969H7.99689H7.99687H7.99686H7.99685H7.99684H7.99682H7.99681H7.9968H7.99678H7.99677H7.99676H7.99674H7.99673H7.99672H7.9967H7.99669H7.99667H7.99666H7.99664H7.99663H7.99662H7.9966H7.99659H7.99657H7.99656H7.99654H7.99653H7.99651H7.9965H7.99648H7.99647H7.99645H7.99644H7.99642H7.99641H7.99639H7.99637H7.99636H7.99634H7.99633H7.99631H7.99629H7.99628H7.99626H7.99624H7.99623H7.99621H7.99619H7.99618H7.99616H7.99614H7.99612H7.99611H7.99609H7.99607H7.99605H7.99604H7.99602H7.996H7.99598H7.99596H7.99594H7.99593H7.99591H7.99589H7.99587H7.99585H7.99583H7.99581H7.99579H7.99577H7.99575H7.99573H7.99571H7.9957H7.99568H7.99566H7.99564H7.99562H7.99559H7.99557H7.99555H7.99553H7.99551H7.99549H7.99547H7.99545H7.99543H7.99541H7.99538H7.99536H7.99534H7.99532H7.9953H7.99528H7.99525H7.99523H7.99521H7.99519H7.99516H7.99514H7.99512H7.9951H7.99507H7.99505H7.99503H7.995H7.99498H7.99496H7.99493H7.99491H7.99488H7.99486H7.99483H7.99481H7.99479H7.99476H7.99474H7.99471H7.99469H7.99466H7.99464H7.99461H7.99459H7.99456H7.99453H7.99451H7.99448H7.99446H7.99443H7.9944H7.99438H7.99435H7.99432H7.9943H7.99427H7.99424H7.99422H7.99419H7.99416H7.99413H7.99411H7.99408H7.99405H7.99402H7.99399H7.99397H7.99394H7.99391H7.99388H7.99385H7.99382H7.99379H7.99376H7.99373H7.9937H7.99367H7.99364H7.99361H7.99358H7.99355H7.99352H7.99349H7.99346H7.99343H7.9934H7.99337H7.99334H7.99331H7.99328H7.99324H7.99321H7.99318H7.99315H7.99312H7.99308H7.99305H7.99302H7.99299H7.99295H7.99292H7.99289H7.99285H7.99282H7.99279H7.99275H7.99272H7.99269H7.99265H7.99262H7.99258H7.99255H7.99251H7.99248H7.99244H7.99241H7.99237H7.99234H7.9923H7.99227H7.99223H7.99219H7.99216H7.99212H7.99209H7.99205H7.99201H7.99198H7.99194H7.9919H7.99186H7.99183H7.99179H7.99175H7.99171H7.99168H7.99164H7.9916H7.99156H7.99152H7.99148H7.99144C5.81086 1.66699 3.36839 2.93976 2.7324 5.73756L5.82467 13.4532ZM5.82467 13.4532C3.94576 11.6466 2.01407 8.90615 2.73234 5.7378L5.82467 13.4532ZM5.39811 6.87366C5.39811 8.3098 6.56197 9.47366 7.99811 9.47366C9.43425 9.47366 10.5981 8.3098 10.5981 6.87366C10.5981 5.43752 9.43425 4.27366 7.99811 4.27366C6.56197 4.27366 5.39811 5.43752 5.39811 6.87366Z" fill="#F03738" stroke="#F03738"/>
</g>
<defs>
<clipPath id="clip0_2432_296908">
<rect width="16" height="16" fill="white"/>
</clipPath>
</defs>
</svg>
