<svg width="20" height="20" viewBox="0 0 20 20" fill="none" xmlns="http://www.w3.org/2000/svg">
<path d="M6.66602 1.66797V4.16797" stroke="#FCB706" stroke-opacity="0.24" stroke-width="1.5" stroke-miterlimit="10" stroke-linecap="round" stroke-linejoin="round"/>
<path d="M6.66602 1.66797V4.16797" stroke="white" stroke-width="1.5" stroke-miterlimit="10" stroke-linecap="round" stroke-linejoin="round"/>
<path d="M13.334 1.66797V4.16797" stroke="#FCB706" stroke-opacity="0.24" stroke-width="1.5" stroke-miterlimit="10" stroke-linecap="round" stroke-linejoin="round"/>
<path d="M13.334 1.66797V4.16797" stroke="white" stroke-width="1.5" stroke-miterlimit="10" stroke-linecap="round" stroke-linejoin="round"/>
<path d="M17.5 7.08464V14.168C17.5 16.668 16.25 18.3346 13.3333 18.3346H6.66667C3.75 18.3346 2.5 16.668 2.5 14.168V7.08464C2.5 4.58464 3.75 2.91797 6.66667 2.91797H13.3333C16.25 2.91797 17.5 4.58464 17.5 7.08464Z" stroke="#FCB706" stroke-opacity="0.24" stroke-width="1.5" stroke-miterlimit="10" stroke-linecap="round" stroke-linejoin="round"/>
<path d="M17.5 7.08464V14.168C17.5 16.668 16.25 18.3346 13.3333 18.3346H6.66667C3.75 18.3346 2.5 16.668 2.5 14.168V7.08464C2.5 4.58464 3.75 2.91797 6.66667 2.91797H13.3333C16.25 2.91797 17.5 4.58464 17.5 7.08464Z" stroke="white" stroke-width="1.5" stroke-miterlimit="10" stroke-linecap="round" stroke-linejoin="round"/>
<path d="M6.66602 9.16797H13.3327" stroke="#FCB706" stroke-opacity="0.24" stroke-width="1.5" stroke-miterlimit="10" stroke-linecap="round" stroke-linejoin="round"/>
<path d="M6.66602 9.16797H13.3327" stroke="white" stroke-width="1.5" stroke-miterlimit="10" stroke-linecap="round" stroke-linejoin="round"/>
<path d="M6.66602 13.332H9.99935" stroke="#FCB706" stroke-opacity="0.24" stroke-width="1.5" stroke-miterlimit="10" stroke-linecap="round" stroke-linejoin="round"/>
<path d="M6.66602 13.332H9.99935" stroke="white" stroke-width="1.5" stroke-miterlimit="10" stroke-linecap="round" stroke-linejoin="round"/>
</svg>
