<svg width="40" height="40" viewBox="0 0 40 40" fill="none" xmlns="http://www.w3.org/2000/svg">
<path d="M35.832 25.8335C36.2987 25.8335 36.6654 26.2002 36.6654 26.6668V28.3335C36.6654 31.1002 34.432 33.3335 31.6654 33.3335C31.6654 30.5835 29.4154 28.3335 26.6654 28.3335C23.9154 28.3335 21.6654 30.5835 21.6654 33.3335H18.332C18.332 30.5835 16.082 28.3335 13.332 28.3335C10.582 28.3335 8.33203 30.5835 8.33203 33.3335C5.56536 33.3335 3.33203 31.1002 3.33203 28.3335V25.0002C3.33203 24.0835 4.08203 23.3335 4.9987 23.3335H20.832C23.132 23.3335 24.9987 21.4668 24.9987 19.1668V10.0002C24.9987 9.0835 25.7487 8.3335 26.6654 8.3335H28.0654C29.2654 8.3335 30.3654 8.9835 30.9654 10.0168L32.032 11.8835C32.182 12.1502 31.982 12.5002 31.6654 12.5002C29.3654 12.5002 27.4987 14.3668 27.4987 16.6668V21.6668C27.4987 23.9668 29.3654 25.8335 31.6654 25.8335H35.832Z" fill="#000000"/>
<path d="M13.3333 36.6667C15.1743 36.6667 16.6667 35.1743 16.6667 33.3333C16.6667 31.4924 15.1743 30 13.3333 30C11.4924 30 10 31.4924 10 33.3333C10 35.1743 11.4924 36.6667 13.3333 36.6667Z" fill="#000000"/>
<path d="M26.6654 36.6667C28.5063 36.6667 29.9987 35.1743 29.9987 33.3333C29.9987 31.4924 28.5063 30 26.6654 30C24.8244 30 23.332 31.4924 23.332 33.3333C23.332 35.1743 24.8244 36.6667 26.6654 36.6667Z" fill="#000000"/>
<path d="M36.6667 20.8833V23.3333H31.6667C30.75 23.3333 30 22.5833 30 21.6667V16.6667C30 15.75 30.75 15 31.6667 15H33.8167L36.2333 19.2333C36.5167 19.7333 36.6667 20.3 36.6667 20.8833Z" fill="#000000"/>
<path d="M21.7987 3.3335H9.48203C6.08203 3.3335 3.33203 6.0835 3.33203 9.4835V20.1335C3.33203 21.0502 4.08203 21.8002 4.9987 21.8002H20.2487C21.9487 21.8002 23.332 20.4168 23.332 18.7168V4.86683C23.332 4.01683 22.6487 3.3335 21.7987 3.3335ZM15.632 13.1835C15.632 13.6168 15.3987 14.0335 15.032 14.2502L12.9487 15.5002C12.732 15.6335 12.5154 15.6835 12.2987 15.6835C11.882 15.6835 11.4654 15.4668 11.232 15.0835C10.8654 14.4835 11.0654 13.7168 11.6487 13.3668L13.132 12.4835V10.6835C13.132 10.0002 13.6987 9.4335 14.382 9.4335C15.0654 9.4335 15.632 10.0002 15.632 10.6835V13.1835Z" fill="#000000"/>
</svg>
