<svg width="24" height="24" viewBox="0 0 24 24" fill="none" xmlns="http://www.w3.org/2000/svg">
<path d="M21.5 17C21.5 18.2274 20.622 19.2442 19.4579 19.4584C19.1959 17.7874 17.742 16.5 16 16.5C14.2435 16.5 12.78 17.8088 12.5358 19.5H11.4642C11.22 17.8088 9.75646 16.5 8 16.5C6.25796 16.5 4.80408 17.7874 4.54207 19.4584C3.378 19.2442 2.5 18.2274 2.5 17V15C2.5 14.7261 2.72614 14.5 3 14.5H12.5C14.1561 14.5 15.5 13.1561 15.5 11.5V6C15.5 5.72614 15.7261 5.5 16 5.5H16.84C17.3769 5.5 17.8738 5.79075 18.1468 6.25962C18.147 6.2601 18.1473 6.26058 18.1476 6.26107L18.586 7.02836C17.1256 7.23016 16 8.4843 16 10V13C16 14.6561 17.3439 16 19 16H21.5V17Z" fill="#FCB706" fill-opacity="0.24"/>
<path d="M21.5 17C21.5 18.2274 20.622 19.2442 19.4579 19.4584C19.1959 17.7874 17.742 16.5 16 16.5C14.2435 16.5 12.78 17.8088 12.5358 19.5H11.4642C11.22 17.8088 9.75646 16.5 8 16.5C6.25796 16.5 4.80408 17.7874 4.54207 19.4584C3.378 19.2442 2.5 18.2274 2.5 17V15C2.5 14.7261 2.72614 14.5 3 14.5H12.5C14.1561 14.5 15.5 13.1561 15.5 11.5V6C15.5 5.72614 15.7261 5.5 16 5.5H16.84C17.3769 5.5 17.8738 5.79075 18.1468 6.25962C18.147 6.2601 18.1473 6.26058 18.1476 6.26107L18.586 7.02836C17.1256 7.23016 16 8.4843 16 10V13C16 14.6561 17.3439 16 19 16H21.5V17Z" fill="white"/>
<path d="M21.5 17C21.5 18.2274 20.622 19.2442 19.4579 19.4584C19.1959 17.7874 17.742 16.5 16 16.5C14.2435 16.5 12.78 17.8088 12.5358 19.5H11.4642C11.22 17.8088 9.75646 16.5 8 16.5C6.25796 16.5 4.80408 17.7874 4.54207 19.4584C3.378 19.2442 2.5 18.2274 2.5 17V15C2.5 14.7261 2.72614 14.5 3 14.5H12.5C14.1561 14.5 15.5 13.1561 15.5 11.5V6C15.5 5.72614 15.7261 5.5 16 5.5H16.84C17.3769 5.5 17.8738 5.79075 18.1468 6.25962C18.147 6.2601 18.1473 6.26058 18.1476 6.26107L18.586 7.02836C17.1256 7.23016 16 8.4843 16 10V13C16 14.6561 17.3439 16 19 16H21.5V17Z" stroke="#FCB706" stroke-opacity="0.24"/>
<path d="M21.5 17C21.5 18.2274 20.622 19.2442 19.4579 19.4584C19.1959 17.7874 17.742 16.5 16 16.5C14.2435 16.5 12.78 17.8088 12.5358 19.5H11.4642C11.22 17.8088 9.75646 16.5 8 16.5C6.25796 16.5 4.80408 17.7874 4.54207 19.4584C3.378 19.2442 2.5 18.2274 2.5 17V15C2.5 14.7261 2.72614 14.5 3 14.5H12.5C14.1561 14.5 15.5 13.1561 15.5 11.5V6C15.5 5.72614 15.7261 5.5 16 5.5H16.84C17.3769 5.5 17.8738 5.79075 18.1468 6.25962C18.147 6.2601 18.1473 6.26058 18.1476 6.26107L18.586 7.02836C17.1256 7.23016 16 8.4843 16 10V13C16 14.6561 17.3439 16 19 16H21.5V17Z" stroke="white"/>
<path d="M9.5 20C9.5 20.8284 8.82843 21.5 8 21.5C7.17157 21.5 6.5 20.8284 6.5 20C6.5 19.1716 7.17157 18.5 8 18.5C8.82843 18.5 9.5 19.1716 9.5 20Z" fill="#FCB706" fill-opacity="0.24"/>
<path d="M9.5 20C9.5 20.8284 8.82843 21.5 8 21.5C7.17157 21.5 6.5 20.8284 6.5 20C6.5 19.1716 7.17157 18.5 8 18.5C8.82843 18.5 9.5 19.1716 9.5 20Z" fill="white"/>
<path d="M9.5 20C9.5 20.8284 8.82843 21.5 8 21.5C7.17157 21.5 6.5 20.8284 6.5 20C6.5 19.1716 7.17157 18.5 8 18.5C8.82843 18.5 9.5 19.1716 9.5 20Z" stroke="#FCB706" stroke-opacity="0.24"/>
<path d="M9.5 20C9.5 20.8284 8.82843 21.5 8 21.5C7.17157 21.5 6.5 20.8284 6.5 20C6.5 19.1716 7.17157 18.5 8 18.5C8.82843 18.5 9.5 19.1716 9.5 20Z" stroke="white"/>
<path d="M17.5 20C17.5 20.8284 16.8284 21.5 16 21.5C15.1716 21.5 14.5 20.8284 14.5 20C14.5 19.1716 15.1716 18.5 16 18.5C16.8284 18.5 17.5 19.1716 17.5 20Z" fill="#FCB706" fill-opacity="0.24"/>
<path d="M17.5 20C17.5 20.8284 16.8284 21.5 16 21.5C15.1716 21.5 14.5 20.8284 14.5 20C14.5 19.1716 15.1716 18.5 16 18.5C16.8284 18.5 17.5 19.1716 17.5 20Z" fill="white"/>
<path d="M17.5 20C17.5 20.8284 16.8284 21.5 16 21.5C15.1716 21.5 14.5 20.8284 14.5 20C14.5 19.1716 15.1716 18.5 16 18.5C16.8284 18.5 17.5 19.1716 17.5 20Z" stroke="#FCB706" stroke-opacity="0.24"/>
<path d="M17.5 20C17.5 20.8284 16.8284 21.5 16 21.5C15.1716 21.5 14.5 20.8284 14.5 20C14.5 19.1716 15.1716 18.5 16 18.5C16.8284 18.5 17.5 19.1716 17.5 20Z" stroke="white"/>
<path d="M21.5 12.53V13.5H19C18.7261 13.5 18.5 13.2739 18.5 13V10C18.5 9.72614 18.7261 9.5 19 9.5H19.9997L21.305 11.7865C21.3051 11.7867 21.3052 11.7869 21.3054 11.7872C21.4324 12.0116 21.5 12.2663 21.5 12.53Z" fill="#FCB706" fill-opacity="0.24"/>
<path d="M21.5 12.53V13.5H19C18.7261 13.5 18.5 13.2739 18.5 13V10C18.5 9.72614 18.7261 9.5 19 9.5H19.9997L21.305 11.7865C21.3051 11.7867 21.3052 11.7869 21.3054 11.7872C21.4324 12.0116 21.5 12.2663 21.5 12.53Z" fill="white"/>
<path d="M21.5 12.53V13.5H19C18.7261 13.5 18.5 13.2739 18.5 13V10C18.5 9.72614 18.7261 9.5 19 9.5H19.9997L21.305 11.7865C21.3051 11.7867 21.3052 11.7869 21.3054 11.7872C21.4324 12.0116 21.5 12.2663 21.5 12.53Z" stroke="#FCB706" stroke-opacity="0.24"/>
<path d="M21.5 12.53V13.5H19C18.7261 13.5 18.5 13.2739 18.5 13V10C18.5 9.72614 18.7261 9.5 19 9.5H19.9997L21.305 11.7865C21.3051 11.7867 21.3052 11.7869 21.3054 11.7872C21.4324 12.0116 21.5 12.2663 21.5 12.53Z" stroke="white"/>
<path d="M6.74 9.05L6.3129 9.30997C6.54707 9.69469 6.96223 9.91 7.38 9.91C7.59255 9.91 7.81399 9.8593 8.02935 9.72749L9.27608 8.97945C9.65169 8.75665 9.88 8.34101 9.88 7.91V6.41C9.88 5.72386 9.31614 5.16 8.63 5.16C7.94386 5.16 7.38 5.72386 7.38 6.41V7.20581L6.73417 7.5904L6.73275 7.59125C6.14662 7.94293 5.94731 8.71174 6.31336 9.31072L6.74 9.05ZM6.74 9.05C6.88 9.28 7.13 9.41 7.38 9.41C7.51 9.41 7.64 9.38 7.77 9.3L6.99 8.02C6.64 8.23 6.52 8.69 6.74 9.05ZM5.69 2.5H13.08C13.3139 2.5 13.5 2.68614 13.5 2.92V11.23C13.5 11.9739 12.8939 12.58 12.15 12.58H3C2.72614 12.58 2.5 12.3539 2.5 12.08V5.69C2.5 3.92614 3.92614 2.5 5.69 2.5Z" fill="#FCB706" fill-opacity="0.24"/>
<path d="M6.74 9.05L6.3129 9.30997C6.54707 9.69469 6.96223 9.91 7.38 9.91C7.59255 9.91 7.81399 9.8593 8.02935 9.72749L9.27608 8.97945C9.65169 8.75665 9.88 8.34101 9.88 7.91V6.41C9.88 5.72386 9.31614 5.16 8.63 5.16C7.94386 5.16 7.38 5.72386 7.38 6.41V7.20581L6.73417 7.5904L6.73275 7.59125C6.14662 7.94293 5.94731 8.71174 6.31336 9.31072L6.74 9.05ZM6.74 9.05C6.88 9.28 7.13 9.41 7.38 9.41C7.51 9.41 7.64 9.38 7.77 9.3L6.99 8.02C6.64 8.23 6.52 8.69 6.74 9.05ZM5.69 2.5H13.08C13.3139 2.5 13.5 2.68614 13.5 2.92V11.23C13.5 11.9739 12.8939 12.58 12.15 12.58H3C2.72614 12.58 2.5 12.3539 2.5 12.08V5.69C2.5 3.92614 3.92614 2.5 5.69 2.5Z" fill="white"/>
<path d="M6.74 9.05L6.3129 9.30997C6.54707 9.69469 6.96223 9.91 7.38 9.91C7.59255 9.91 7.81399 9.8593 8.02935 9.72749L9.27608 8.97945C9.65169 8.75665 9.88 8.34101 9.88 7.91V6.41C9.88 5.72386 9.31614 5.16 8.63 5.16C7.94386 5.16 7.38 5.72386 7.38 6.41V7.20581L6.73417 7.5904L6.73275 7.59125C6.14662 7.94293 5.94731 8.71174 6.31336 9.31072L6.74 9.05ZM6.74 9.05C6.88 9.28 7.13 9.41 7.38 9.41C7.51 9.41 7.64 9.38 7.77 9.3L6.99 8.02C6.64 8.23 6.52 8.69 6.74 9.05ZM5.69 2.5H13.08C13.3139 2.5 13.5 2.68614 13.5 2.92V11.23C13.5 11.9739 12.8939 12.58 12.15 12.58H3C2.72614 12.58 2.5 12.3539 2.5 12.08V5.69C2.5 3.92614 3.92614 2.5 5.69 2.5Z" stroke="#FCB706" stroke-opacity="0.24"/>
<path d="M6.74 9.05L6.3129 9.30997C6.54707 9.69469 6.96223 9.91 7.38 9.91C7.59255 9.91 7.81399 9.8593 8.02935 9.72749L9.27608 8.97945C9.65169 8.75665 9.88 8.34101 9.88 7.91V6.41C9.88 5.72386 9.31614 5.16 8.63 5.16C7.94386 5.16 7.38 5.72386 7.38 6.41V7.20581L6.73417 7.5904L6.73275 7.59125C6.14662 7.94293 5.94731 8.71174 6.31336 9.31072L6.74 9.05ZM6.74 9.05C6.88 9.28 7.13 9.41 7.38 9.41C7.51 9.41 7.64 9.38 7.77 9.3L6.99 8.02C6.64 8.23 6.52 8.69 6.74 9.05ZM5.69 2.5H13.08C13.3139 2.5 13.5 2.68614 13.5 2.92V11.23C13.5 11.9739 12.8939 12.58 12.15 12.58H3C2.72614 12.58 2.5 12.3539 2.5 12.08V5.69C2.5 3.92614 3.92614 2.5 5.69 2.5Z" stroke="white"/>
</svg>
