<svg width="20" height="20" viewBox="0 0 20 20" fill="none" xmlns="http://www.w3.org/2000/svg">
<path d="M7.50004 8.33333C8.42052 8.33333 9.16671 7.58714 9.16671 6.66667C9.16671 5.74619 8.42052 5 7.50004 5C6.57957 5 5.83337 5.74619 5.83337 6.66667C5.83337 7.58714 6.57957 8.33333 7.50004 8.33333Z" fill="#2B2C34" stroke="#292D32" stroke-width="1.5" stroke-linecap="round" stroke-linejoin="round"/>
<path d="M10.8333 1.6665H7.49996C3.33329 1.6665 1.66663 3.33317 1.66663 7.49984V12.4998C1.66663 16.6665 3.33329 18.3332 7.49996 18.3332H12.5C16.6666 18.3332 18.3333 16.6665 18.3333 12.4998V8.33317" stroke="#292D32" stroke-width="1.5" stroke-linecap="round" stroke-linejoin="round"/>
<path d="M13.125 4.1665H17.7083" stroke="#292D32" stroke-width="1.5" stroke-linecap="round"/>
<path d="M15.4166 6.45833V1.875" stroke="#292D32" stroke-width="1.5" stroke-linecap="round"/>
<path d="M2.22498 15.7918L6.33331 13.0335C6.99164 12.5918 7.94164 12.6418 8.53331 13.1501L8.80831 13.3918C9.45831 13.9501 10.5083 13.9501 11.1583 13.3918L14.625 10.4168C15.275 9.85846 16.325 9.85846 16.975 10.4168L18.3333 11.5835" stroke="#292D32" stroke-width="1.5" stroke-linecap="round" stroke-linejoin="round"/>
</svg>
