<svg width="20" height="20" viewBox="0 0 20 20" fill="none" xmlns="http://www.w3.org/2000/svg">
<path d="M16.2586 4.87484L11.3086 2.0165C10.5003 1.54984 9.50026 1.54984 8.68359 2.0165L3.74193 4.87484C2.93359 5.3415 2.43359 6.20817 2.43359 7.14984V12.8498C2.43359 13.7832 2.93359 14.6498 3.74193 15.1248L8.69193 17.9832C9.50026 18.4498 10.5003 18.4498 11.3169 17.9832L16.2669 15.1248C17.0753 14.6582 17.5753 13.7915 17.5753 12.8498V7.14984C17.5669 6.20817 17.0669 5.34984 16.2586 4.87484ZM9.37526 6.45817C9.37526 6.1165 9.65859 5.83317 10.0003 5.83317C10.3419 5.83317 10.6253 6.1165 10.6253 6.45817V10.8332C10.6253 11.1748 10.3419 11.4582 10.0003 11.4582C9.65859 11.4582 9.37526 11.1748 9.37526 10.8332V6.45817ZM10.7669 13.8582C10.7253 13.9582 10.6669 14.0498 10.5919 14.1332C10.4336 14.2915 10.2253 14.3748 10.0003 14.3748C9.89193 14.3748 9.78359 14.3498 9.68359 14.3082C9.57526 14.2665 9.49193 14.2082 9.40859 14.1332C9.33359 14.0498 9.27526 13.9582 9.22526 13.8582C9.18359 13.7582 9.16693 13.6498 9.16693 13.5415C9.16693 13.3248 9.25026 13.1082 9.40859 12.9498C9.49193 12.8748 9.57526 12.8165 9.68359 12.7748C9.99193 12.6415 10.3586 12.7165 10.5919 12.9498C10.6669 13.0332 10.7253 13.1165 10.7669 13.2248C10.8086 13.3248 10.8336 13.4332 10.8336 13.5415C10.8336 13.6498 10.8086 13.7582 10.7669 13.8582Z" fill="#F3A218"/>
</svg>
