<svg width="20" height="21" viewBox="0 0 20 21" fill="none" xmlns="http://www.w3.org/2000/svg">
<path d="M10.0999 11.1497C10.0416 11.1414 9.9666 11.1414 9.89994 11.1497C8.43327 11.0997 7.2666 9.89974 7.2666 8.42474C7.2666 6.91641 8.48327 5.69141 9.99993 5.69141C11.5083 5.69141 12.7333 6.91641 12.7333 8.42474C12.7249 9.89974 11.5666 11.0997 10.0999 11.1497Z" stroke="#292D32" stroke-linecap="round" stroke-linejoin="round"/>
<path d="M15.6166 16.6498C14.1333 18.0081 12.1666 18.8331 9.99997 18.8331C7.8333 18.8331 5.86663 18.0081 4.3833 16.6498C4.46663 15.8665 4.96663 15.0998 5.8583 14.4998C8.14163 12.9831 11.875 12.9831 14.1416 14.4998C15.0333 15.0998 15.5333 15.8665 15.6166 16.6498Z" stroke="#292D32" stroke-linecap="round" stroke-linejoin="round"/>
<path d="M9.99984 18.8337C14.6022 18.8337 18.3332 15.1027 18.3332 10.5003C18.3332 5.89795 14.6022 2.16699 9.99984 2.16699C5.39746 2.16699 1.6665 5.89795 1.6665 10.5003C1.6665 15.1027 5.39746 18.8337 9.99984 18.8337Z" stroke="#292D32" stroke-linecap="round" stroke-linejoin="round"/>
</svg>
