<svg width="20" height="21" viewBox="0 0 20 21" fill="none" xmlns="http://www.w3.org/2000/svg">
<path d="M14.8342 2.25041L6.55922 4.32541C5.35089 4.62541 4.12589 5.85041 3.82589 7.05874L1.75089 15.3337C1.12589 17.8337 2.65922 19.3754 5.16756 18.7504L13.4426 16.6837C14.6426 16.3837 15.8759 15.1504 16.1759 13.9504L18.2509 5.66707C18.8759 3.16707 17.3342 1.62541 14.8342 2.25041Z" stroke="#292D32" stroke-linecap="round" stroke-linejoin="round"/>
<path d="M10.0007 13.4173C11.6115 13.4173 12.9173 12.1115 12.9173 10.5007C12.9173 8.88982 11.6115 7.58398 10.0007 7.58398C8.38982 7.58398 7.08398 8.88982 7.08398 10.5007C7.08398 12.1115 8.38982 13.4173 10.0007 13.4173Z" stroke="#292D32" stroke-linecap="round" stroke-linejoin="round"/>
</svg>
