<svg width="24" height="25" viewBox="0 0 24 25" fill="none" xmlns="http://www.w3.org/2000/svg">
<path d="M17 19.3311H13L8.54999 22.2911C7.88999 22.7311 7 22.2611 7 21.4611V19.3311C4 19.3311 2 17.3311 2 14.3311V8.33105C2 5.33105 4 3.33105 7 3.33105H17C20 3.33105 22 5.33105 22 8.33105V14.3311C22 17.3311 20 19.3311 17 19.3311Z" fill="white" stroke="#000000" stroke-width="1.5" stroke-miterlimit="10" stroke-linecap="round" stroke-linejoin="round"/>
<path d="M11.9998 12.2617V12.0518C11.9998 11.3718 12.4198 11.0117 12.8398 10.7217C13.2498 10.4417 13.6598 10.0818 13.6598 9.42175C13.6598 8.50175 12.9198 7.76172 11.9998 7.76172C11.0798 7.76172 10.3398 8.50175 10.3398 9.42175" fill="#000000"/>
<path d="M11.9998 12.2617V12.0518C11.9998 11.3718 12.4198 11.0117 12.8398 10.7217C13.2498 10.4417 13.6598 10.0818 13.6598 9.42175C13.6598 8.50175 12.9198 7.76172 11.9998 7.76172C11.0798 7.76172 10.3398 8.50175 10.3398 9.42175" stroke="#000000" stroke-width="1.5" stroke-linecap="round" stroke-linejoin="round"/>
<path d="M11.9955 14.6514H12.0045" stroke="#000000" stroke-width="1.5" stroke-linecap="round" stroke-linejoin="round"/>
</svg>
