<svg width="24" height="25" viewBox="0 0 24 25" fill="none" xmlns="http://www.w3.org/2000/svg">
<path d="M12.0186 3.81152C8.70862 3.81152 6.01862 6.50152 6.01862 9.81152V12.7015C6.01862 13.3115 5.75862 14.2415 5.44862 14.7615L4.29862 16.6715C3.58862 17.8515 4.07862 19.1615 5.37862 19.6015C9.68862 21.0415 14.3386 21.0415 18.6486 19.6015C19.8586 19.2015 20.3886 17.7715 19.7286 16.6715L18.5786 14.7615C18.2786 14.2415 18.0186 13.3115 18.0186 12.7015V9.81152C18.0186 6.51152 15.3186 3.81152 12.0186 3.81152Z" stroke="#000000" stroke-width="1.5" stroke-miterlimit="10" stroke-linecap="round"/>
<path d="M13.8719 4.1018C13.5619 4.0118 13.2419 3.9418 12.9119 3.9018C11.9519 3.7818 11.0319 3.8518 10.1719 4.1018C10.4619 3.3618 11.1819 2.8418 12.0219 2.8418C12.8619 2.8418 13.5819 3.3618 13.8719 4.1018Z" stroke="#000000" stroke-width="1.5" stroke-miterlimit="10" stroke-linecap="round" stroke-linejoin="round"/>
<path d="M15.0195 19.9609C15.0195 21.6109 13.6695 22.9609 12.0195 22.9609C11.1995 22.9609 10.4395 22.6209 9.89953 22.0809C9.35953 21.5409 9.01953 20.7809 9.01953 19.9609" stroke="#000000" stroke-width="1.5" stroke-miterlimit="10"/>
</svg>
