<svg width="20" height="21" viewBox="0 0 20 21" fill="none" xmlns="http://www.w3.org/2000/svg">
<path d="M18.3333 13C18.3333 16.225 15.725 18.8333 12.5 18.8333L13.375 17.375" stroke="#292D32" stroke-linecap="round" stroke-linejoin="round"/>
<path d="M1.66699 8.00033C1.66699 4.77533 4.27533 2.16699 7.50033 2.16699L6.62532 3.62533" stroke="#292D32" stroke-linecap="round" stroke-linejoin="round"/>
<path d="M11.417 4.20898L14.7337 6.12564L18.017 4.21733" stroke="#292D32" stroke-linecap="round" stroke-linejoin="round"/>
<path d="M14.7334 9.5172V6.11719" stroke="#292D32" stroke-linecap="round" stroke-linejoin="round"/>
<path d="M13.95 2.34199L11.95 3.45029C11.5 3.70029 11.125 4.33362 11.125 4.85028V6.96698C11.125 7.48365 11.4917 8.11698 11.95 8.36698L13.95 9.47532C14.375 9.71699 15.075 9.71699 15.5083 9.47532L17.5083 8.36698C17.9583 8.11698 18.3333 7.48365 18.3333 6.96698V4.85028C18.3333 4.33362 17.9667 3.70029 17.5083 3.45029L15.5083 2.34199C15.0833 2.10866 14.3833 2.10866 13.95 2.34199Z" stroke="#292D32" stroke-linecap="round" stroke-linejoin="round"/>
<path d="M1.95898 13.375L5.26732 15.2917L8.55898 13.3833" stroke="#292D32" stroke-linecap="round" stroke-linejoin="round"/>
<path d="M5.26758 18.6832V15.2832" stroke="#292D32" stroke-linecap="round" stroke-linejoin="round"/>
<path d="M4.49199 11.508L2.492 12.6163C2.042 12.8663 1.66699 13.4996 1.66699 14.0163V16.133C1.66699 16.6497 2.03366 17.283 2.492 17.533L4.49199 18.6413C4.91699 18.883 5.61699 18.883 6.05032 18.6413L8.05033 17.533C8.50033 17.283 8.87532 16.6497 8.87532 16.133V14.0163C8.87532 13.4996 8.50866 12.8663 8.05033 12.6163L6.05032 11.508C5.61699 11.2747 4.91699 11.2747 4.49199 11.508Z" stroke="#292D32" stroke-linecap="round" stroke-linejoin="round"/>
</svg>
