<svg width="20" height="21" viewBox="0 0 20 21" fill="none" xmlns="http://www.w3.org/2000/svg">
<path d="M18.3333 13C18.3333 16.225 15.725 18.8333 12.5 18.8333L13.375 17.375" stroke="#292D32" stroke-linecap="round" stroke-linejoin="round"/>
<path d="M1.66699 7.99984C1.66699 4.77484 4.27533 2.1665 7.50033 2.1665L6.62532 3.62484" stroke="#292D32" stroke-linecap="round" stroke-linejoin="round"/>
<path d="M11.417 4.20801L14.7337 6.12466L18.017 4.21635" stroke="#292D32" stroke-linecap="round" stroke-linejoin="round"/>
<path d="M14.7334 9.51623V6.11621" stroke="#292D32" stroke-linecap="round" stroke-linejoin="round"/>
<path d="M13.95 2.3415L11.95 3.4498C11.5 3.6998 11.125 4.33313 11.125 4.84979V6.96649C11.125 7.48316 11.4917 8.11649 11.95 8.36649L13.95 9.47484C14.375 9.7165 15.075 9.7165 15.5083 9.47484L17.5083 8.36649C17.9583 8.11649 18.3333 7.48316 18.3333 6.96649V4.84979C18.3333 4.33313 17.9667 3.6998 17.5083 3.4498L15.5083 2.3415C15.0833 2.10817 14.3833 2.10817 13.95 2.3415Z" stroke="#292D32" stroke-linecap="round" stroke-linejoin="round"/>
<path d="M1.95898 13.375L5.26732 15.2917L8.55898 13.3833" stroke="#292D32" stroke-linecap="round" stroke-linejoin="round"/>
<path d="M5.26758 18.6832V15.2832" stroke="#292D32" stroke-linecap="round" stroke-linejoin="round"/>
<path d="M4.49199 11.5085L2.492 12.6168C2.042 12.8668 1.66699 13.5001 1.66699 14.0168V16.1335C1.66699 16.6502 2.03366 17.2835 2.492 17.5335L4.49199 18.6418C4.91699 18.8835 5.61699 18.8835 6.05032 18.6418L8.05033 17.5335C8.50033 17.2835 8.87532 16.6502 8.87532 16.1335V14.0168C8.87532 13.5001 8.50866 12.8668 8.05033 12.6168L6.05032 11.5085C5.61699 11.2752 4.91699 11.2752 4.49199 11.5085Z" stroke="#292D32" stroke-linecap="round" stroke-linejoin="round"/>
</svg>
