<svg width="24" height="25" viewBox="0 0 24 25" fill="none" xmlns="http://www.w3.org/2000/svg">
<path d="M17.9981 8.06137C17.9381 8.05137 17.8681 8.05137 17.8081 8.06137C16.4281 8.01137 15.3281 6.88137 15.3281 5.48137C15.3281 4.05137 16.4781 2.90137 17.9081 2.90137C19.3381 2.90137 20.4881 4.06137 20.4881 5.48137C20.4781 6.88137 19.3781 8.01137 17.9981 8.06137Z" stroke="#000000" stroke-width="1.5" stroke-linecap="round" stroke-linejoin="round"/>
<path d="M16.9675 15.3415C18.3375 15.5715 19.8475 15.3315 20.9075 14.6215C22.3175 13.6815 22.3175 12.1415 20.9075 11.2015C19.8375 10.4915 18.3075 10.2515 16.9375 10.4915" stroke="#000000" stroke-width="1.5" stroke-linecap="round" stroke-linejoin="round"/>
<path d="M5.97047 8.06137C6.03047 8.05137 6.10047 8.05137 6.16047 8.06137C7.54047 8.01137 8.64047 6.88137 8.64047 5.48137C8.64047 4.05137 7.49047 2.90137 6.06047 2.90137C4.63047 2.90137 3.48047 4.06137 3.48047 5.48137C3.49047 6.88137 4.59047 8.01137 5.97047 8.06137Z" stroke="#000000" stroke-width="1.5" stroke-linecap="round" stroke-linejoin="round"/>
<path d="M7.0014 15.3415C5.6314 15.5715 4.12141 15.3315 3.06141 14.6215C1.65141 13.6815 1.65141 12.1415 3.06141 11.2015C4.13141 10.4915 5.6614 10.2515 7.0314 10.4915" stroke="#000000" stroke-width="1.5" stroke-linecap="round" stroke-linejoin="round"/>
<path d="M11.9981 15.5311C11.9381 15.5211 11.8681 15.5211 11.8081 15.5311C10.4281 15.4811 9.32812 14.3511 9.32812 12.9511C9.32812 11.5211 10.4781 10.3711 11.9081 10.3711C13.3381 10.3711 14.4881 11.5311 14.4881 12.9511C14.4781 14.3511 13.3781 15.4911 11.9981 15.5311Z" stroke="#000000" stroke-width="1.5" stroke-linecap="round" stroke-linejoin="round"/>
<path d="M9.08875 18.6807C7.67875 19.6207 7.67875 21.1607 9.08875 22.1007C10.6888 23.1707 13.3087 23.1707 14.9087 22.1007C16.3187 21.1607 16.3187 19.6207 14.9087 18.6807C13.3187 17.6207 10.6888 17.6207 9.08875 18.6807Z" stroke="#000000" stroke-width="1.5" stroke-linecap="round" stroke-linejoin="round"/>
</svg>
