<svg width="24" height="25" viewBox="0 0 24 25" fill="none" xmlns="http://www.w3.org/2000/svg">
<path d="M9.15859 11.7714C9.05859 11.7614 8.93859 11.7614 8.82859 11.7714C6.44859 11.6914 4.55859 9.74137 4.55859 7.34137C4.55859 4.89137 6.53859 2.90137 8.99859 2.90137C11.4486 2.90137 13.4386 4.89137 13.4386 7.34137C13.4286 9.74137 11.5386 11.6914 9.15859 11.7714Z" stroke="#000000" stroke-width="1.5" stroke-linecap="round" stroke-linejoin="round"/>
<path d="M16.4112 4.90137C18.3512 4.90137 19.9112 6.47137 19.9112 8.40137C19.9112 10.2914 18.4113 11.8314 16.5413 11.9014C16.4613 11.8914 16.3713 11.8914 16.2812 11.9014" stroke="#000000" stroke-width="1.5" stroke-linecap="round" stroke-linejoin="round"/>
<path d="M4.15875 15.4614C1.73875 17.0814 1.73875 19.7214 4.15875 21.3314C6.90875 23.1714 11.4188 23.1714 14.1688 21.3314C16.5888 19.7114 16.5888 17.0714 14.1688 15.4614C11.4288 13.6314 6.91875 13.6314 4.15875 15.4614Z" stroke="#000000" stroke-width="1.5" stroke-linecap="round" stroke-linejoin="round"/>
<path d="M18.3398 20.9014C19.0598 20.7514 19.7398 20.4614 20.2998 20.0314C21.8598 18.8614 21.8598 16.9314 20.2998 15.7614C19.7498 15.3414 19.0798 15.0614 18.3698 14.9014" stroke="#000000" stroke-width="1.5" stroke-linecap="round" stroke-linejoin="round"/>
</svg>
