<svg width="24" height="25" viewBox="0 0 24 25" fill="none" xmlns="http://www.w3.org/2000/svg">
<path d="M20.8222 10.8394C20.5963 10.8397 20.3709 10.8577 20.1484 10.8934V3.20898H20.4135C20.5926 3.20946 20.7643 3.27486 20.8909 3.39091C21.0176 3.50696 21.089 3.66422 21.0895 3.82833V10.8477C21.0019 10.8433 20.9123 10.8394 20.8222 10.8394ZM3.48145 0.901367C3.38245 0.901439 3.28503 0.924102 3.19799 0.96731C3.11094 1.01052 3.03702 1.07291 2.98289 1.14885H3.97916C3.92483 1.07326 3.85098 1.01113 3.76416 0.967954C3.67734 0.924782 3.58023 0.901911 3.48145 0.901367ZM18.7102 23.5383H0.676009C0.49688 23.5378 0.325237 23.4724 0.198573 23.3563C0.0719093 23.2403 0.000520186 23.083 0 22.9189V2.46653C0.000148284 2.30219 0.0713732 2.1446 0.198077 2.02827C0.324781 1.91194 0.496637 1.84636 0.676009 1.84588H2.12492V4.25982C2.13006 4.58651 2.27531 4.89822 2.52928 5.12758C2.78325 5.35694 3.12554 5.48552 3.48215 5.48552C3.83876 5.48552 4.18105 5.35694 4.43502 5.12758C4.68899 4.89822 4.83424 4.58651 4.83938 4.25982V3.01956C4.84135 2.97268 4.83297 2.92592 4.81475 2.88208C4.79653 2.83824 4.76883 2.79821 4.73333 2.76441C4.69782 2.7306 4.65524 2.70371 4.60812 2.68534C4.56101 2.66697 4.51033 2.6575 4.45912 2.6575C4.40792 2.6575 4.35724 2.66697 4.31012 2.68534C4.26301 2.70371 4.22042 2.7306 4.18492 2.76441C4.14941 2.79821 4.12172 2.83824 4.1035 2.88208C4.08528 2.92592 4.0769 2.97268 4.07887 3.01956V4.25982C4.07887 4.33156 4.06344 4.4026 4.03348 4.46889C4.00351 4.53517 3.95959 4.5954 3.90422 4.64613C3.84885 4.69686 3.78311 4.7371 3.71076 4.76455C3.63842 4.79201 3.56088 4.80614 3.48257 4.80614C3.40426 4.80614 3.32673 4.79201 3.25438 4.76455C3.18203 4.7371 3.1163 4.69686 3.06093 4.64613C3.00556 4.5954 2.96163 4.53517 2.93167 4.46889C2.9017 4.4026 2.88628 4.33156 2.88628 4.25982V1.84588H18.7102C18.8896 1.84636 19.0615 1.91194 19.1882 2.02827C19.3149 2.1446 19.3861 2.30219 19.3862 2.46653V11.0885C18.6483 11.3526 18.0145 11.8146 17.5677 12.414C17.1209 13.0135 16.8819 13.7225 16.8819 14.4483C16.8819 15.1742 17.1209 15.8832 17.5677 16.4826C18.0145 17.0821 18.6483 17.544 19.3862 17.8082V22.9179C19.386 23.0822 19.3148 23.2397 19.1881 23.356C19.0614 23.4722 18.8896 23.5378 18.7102 23.5383ZM2.89557 9.25259C2.89557 9.34501 2.93562 9.43365 3.00693 9.49903C3.07823 9.56441 3.17495 9.60117 3.27583 9.60124H5.04725L6.50658 10.9974C6.54214 11.0313 6.58482 11.0583 6.63207 11.0768C6.67931 11.0952 6.73014 11.1047 6.78149 11.1047C6.79163 11.1047 6.80206 11.1047 6.81248 11.1047C6.86867 11.1003 6.92309 11.0846 6.97181 11.0586C7.02052 11.0325 7.06231 10.9969 7.09415 10.9543L9.2185 8.11556H12.0048C12.0929 8.11557 12.1782 8.08746 12.2462 8.03608L15.1037 5.88201C15.1233 5.95131 15.1657 6.0134 15.2251 6.05985C15.2845 6.10629 15.3581 6.13484 15.4359 6.14161C15.5137 6.14838 15.5918 6.13303 15.6598 6.09767C15.7277 6.0623 15.7821 6.00863 15.8155 5.94395L16.3597 4.89285C16.3904 4.83365 16.4022 4.76773 16.3938 4.70265C16.3855 4.63757 16.3572 4.57598 16.3124 4.52494C16.2675 4.4739 16.2079 4.43548 16.1402 4.4141C16.0726 4.39272 15.9998 4.38925 15.9301 4.40408L14.6221 4.68175C14.54 4.69931 14.4667 4.7413 14.4135 4.80114C14.3603 4.86099 14.3303 4.93531 14.3282 5.01246C14.3261 5.08961 14.352 5.16522 14.4018 5.22745C14.4516 5.28968 14.5225 5.33501 14.6035 5.35633L11.8685 7.41672H9.01852C8.95668 7.41669 8.89578 7.4305 8.84109 7.45695C8.78641 7.48339 8.7396 7.52167 8.70474 7.56846L6.73192 10.2051L5.48497 9.01156C5.44943 8.97757 5.40675 8.95052 5.35951 8.93203C5.31227 8.91353 5.26143 8.90398 5.21006 8.90395H3.27583C3.17495 8.90402 3.07823 8.94078 3.00693 9.00615C2.93562 9.07153 2.89557 9.16017 2.89557 9.25259ZM15.7961 7.60098H14.2272C14.1772 7.60095 14.1278 7.60993 14.0816 7.62743C14.0355 7.64493 13.9935 7.67059 13.9582 7.70294C13.9229 7.7353 13.8949 7.77372 13.8758 7.816C13.8567 7.85829 13.8469 7.90361 13.8469 7.94937V15.5223C13.8469 15.568 13.8567 15.6133 13.8758 15.6556C13.8949 15.6979 13.9229 15.7363 13.9582 15.7687C13.9935 15.801 14.0355 15.8267 14.0816 15.8442C14.1278 15.8617 14.1772 15.8707 14.2272 15.8707H15.7972C15.8471 15.8707 15.8966 15.8617 15.9428 15.8442C15.9889 15.8267 16.0308 15.801 16.0662 15.7687C16.1015 15.7363 16.1295 15.6979 16.1486 15.6556C16.1677 15.6133 16.1775 15.568 16.1775 15.5223V7.94833C16.1775 7.90257 16.1677 7.85726 16.1486 7.81497C16.1295 7.77269 16.1015 7.73427 16.0662 7.70191C16.0308 7.66955 15.9889 7.64389 15.9428 7.6264C15.8966 7.6089 15.8471 7.59991 15.7972 7.59995L15.7961 7.60098ZM13.0199 9.37827H11.4513C11.4012 9.37813 11.3516 9.38706 11.3053 9.40454C11.259 9.42201 11.2169 9.4477 11.1814 9.48011C11.1459 9.51253 11.1178 9.55104 11.0986 9.59343C11.0795 9.63583 11.0696 9.68128 11.0696 9.72717V15.5223C11.0696 15.568 11.0795 15.6134 11.0986 15.6557C11.1177 15.6979 11.1458 15.7364 11.1811 15.7687C11.2165 15.8011 11.2584 15.8267 11.3046 15.8442C11.3507 15.8617 11.4002 15.8707 11.4502 15.8707H13.0199C13.0699 15.8707 13.1193 15.8617 13.1655 15.8442C13.2116 15.8267 13.2536 15.801 13.2889 15.7687C13.3242 15.7363 13.3522 15.6979 13.3713 15.6556C13.3904 15.6133 13.4002 15.568 13.4002 15.5223V9.72717C13.4004 9.68138 13.3908 9.63599 13.3718 9.59361C13.3529 9.55123 13.325 9.51269 13.2898 9.48019C13.2546 9.44769 13.2127 9.42187 13.1666 9.4042C13.1205 9.38654 13.071 9.37737 13.0211 9.37724L13.0199 9.37827ZM10.2449 10.8162H8.67545C8.62549 10.8162 8.57601 10.8252 8.52984 10.8427C8.48368 10.8601 8.44172 10.8858 8.40638 10.9182C8.37104 10.9505 8.34301 10.9889 8.32388 11.0312C8.30475 11.0735 8.29491 11.1188 8.29491 11.1646V15.5223C8.29491 15.568 8.30475 15.6134 8.32388 15.6557C8.34301 15.6979 8.37104 15.7364 8.40638 15.7687C8.44172 15.8011 8.48368 15.8267 8.52984 15.8442C8.57601 15.8617 8.62549 15.8707 8.67545 15.8707H10.2452C10.2951 15.8707 10.3446 15.8617 10.3908 15.8442C10.4369 15.8267 10.4788 15.801 10.5142 15.7687C10.5495 15.7363 10.5775 15.6979 10.5966 15.6556C10.6157 15.6133 10.6255 15.568 10.6254 15.5223V11.1646C10.6255 11.1188 10.6157 11.0735 10.5966 11.0312C10.5774 10.9889 10.5494 10.9504 10.5141 10.9181C10.4787 10.8857 10.4367 10.8601 10.3906 10.8426C10.3444 10.8251 10.2949 10.8161 10.2449 10.8162ZM7.46877 12.7723H5.89902C5.7981 12.7723 5.70131 12.8091 5.62994 12.8745C5.55858 12.9398 5.51848 13.0285 5.51848 13.121V15.521C5.51848 15.5668 5.52833 15.6121 5.54746 15.6544C5.56658 15.6966 5.59462 15.7351 5.62996 15.7674C5.6653 15.7998 5.70725 15.8254 5.75342 15.8429C5.79958 15.8604 5.84906 15.8694 5.89902 15.8694H7.46877C7.51872 15.8694 7.56818 15.8604 7.61433 15.8429C7.66048 15.8254 7.70242 15.7998 7.73773 15.7674C7.77305 15.735 7.80106 15.6966 7.82016 15.6543C7.83925 15.6121 7.84906 15.5667 7.84902 15.521V13.121C7.84906 13.0752 7.83925 13.0299 7.82016 12.9876C7.80107 12.9453 7.77306 12.9068 7.73775 12.8745C7.70244 12.8421 7.66051 12.8164 7.61435 12.7989C7.5682 12.7814 7.51873 12.7723 7.46877 12.7723ZM2.74234 15.5223C2.74234 15.568 2.75219 15.6134 2.77131 15.6557C2.79044 15.6979 2.81848 15.7364 2.85382 15.7687C2.88916 15.8011 2.93111 15.8267 2.97727 15.8442C3.02344 15.8617 3.07292 15.8707 3.12288 15.8707H4.69263C4.74257 15.8707 4.79204 15.8617 4.83819 15.8442C4.88434 15.8267 4.92627 15.801 4.96159 15.7687C4.99691 15.7363 5.02492 15.6979 5.04401 15.6556C5.06311 15.6133 5.07292 15.568 5.07288 15.5223V11.7832C5.07292 11.7374 5.06311 11.6921 5.04402 11.6498C5.02492 11.6075 4.99692 11.569 4.96161 11.5367C4.92629 11.5043 4.88436 11.4786 4.83821 11.4611C4.79206 11.4435 4.74259 11.4345 4.69263 11.4345H3.12288C3.02195 11.4345 2.92516 11.4713 2.8538 11.5366C2.78243 11.602 2.74234 11.6907 2.74234 11.7832V15.5223ZM2.45898 19.4658C2.45898 19.5582 2.49907 19.6469 2.57044 19.7123C2.6418 19.7777 2.73859 19.8144 2.83952 19.8144H8.78276C8.88369 19.8144 8.98048 19.7777 9.05184 19.7123C9.12321 19.6469 9.1633 19.5582 9.1633 19.4658V17.2818C9.1633 17.236 9.15345 17.1907 9.13433 17.1484C9.1152 17.1061 9.08716 17.0677 9.05182 17.0353C9.01648 17.003 8.97453 16.9773 8.92837 16.9598C8.8822 16.9423 8.83272 16.9333 8.78276 16.9334H2.83952C2.78956 16.9333 2.74008 16.9423 2.69391 16.9598C2.64775 16.9773 2.6058 17.003 2.57046 17.0353C2.53512 17.0677 2.50708 17.1061 2.48795 17.1484C2.46883 17.1907 2.45898 17.236 2.45898 17.2818V19.4658ZM17.7709 21.9731C17.7708 21.8807 17.7307 21.7922 17.6594 21.7268C17.5881 21.6615 17.4914 21.6248 17.3906 21.6247H2.66854C2.61738 21.6229 2.56634 21.6306 2.51849 21.6473C2.47063 21.664 2.42695 21.6894 2.39005 21.7219C2.35315 21.7544 2.3238 21.7934 2.30375 21.8366C2.2837 21.8798 2.27337 21.9262 2.27337 21.9731C2.27337 22.02 2.2837 22.0665 2.30375 22.1096C2.3238 22.1528 2.35315 22.1918 2.39005 22.2243C2.42695 22.2569 2.47063 22.2822 2.51849 22.2989C2.56634 22.3156 2.61738 22.3233 2.66854 22.3215H17.3906C17.4914 22.3214 17.5881 22.2847 17.6594 22.2194C17.7307 22.1541 17.7708 22.0655 17.7709 21.9731ZM17.7709 20.6771C17.7709 20.5847 17.7308 20.496 17.6595 20.4307C17.5882 20.3653 17.4915 20.3285 17.3906 20.3285H2.66854C2.61738 20.3267 2.56634 20.3343 2.51849 20.351C2.47063 20.3677 2.42695 20.3931 2.39005 20.4256C2.35315 20.4582 2.3238 20.4972 2.30375 20.5403C2.2837 20.5835 2.27337 20.6299 2.27337 20.6768C2.27337 20.7238 2.2837 20.7702 2.30375 20.8134C2.3238 20.8565 2.35315 20.8955 2.39005 20.9281C2.42695 20.9606 2.47063 20.986 2.51849 21.0027C2.56634 21.0194 2.61738 21.027 2.66854 21.0252H17.3906C17.4914 21.0252 17.5881 20.9886 17.6594 20.9233C17.7307 20.858 17.7708 20.7695 17.7709 20.6771ZM17.7709 19.3809C17.7709 19.2885 17.7308 19.1998 17.6595 19.1345C17.5882 19.0692 17.4915 19.0325 17.3906 19.0325H10.2114C10.1131 19.0359 10.02 19.0742 9.95183 19.1391C9.8836 19.2041 9.84549 19.2907 9.84549 19.3809C9.84549 19.471 9.8836 19.5576 9.95183 19.6226C10.02 19.6875 10.1131 19.7258 10.2114 19.7292H17.3906C17.4914 19.7292 17.5881 19.6924 17.6594 19.6271C17.7307 19.5618 17.7708 19.4732 17.7709 19.3809ZM17.7709 18.0849C17.7709 17.9924 17.7308 17.9038 17.6595 17.8384C17.5882 17.773 17.4915 17.7363 17.3906 17.7362H10.2114C10.1131 17.7397 10.02 17.7779 9.95183 17.8429C9.8836 17.9078 9.84549 17.9944 9.84549 18.0846C9.84549 18.1747 9.8836 18.2614 9.95183 18.3263C10.02 18.3913 10.1131 18.4295 10.2114 18.433H17.3906C17.4914 18.433 17.5881 18.3963 17.6594 18.331C17.7307 18.2658 17.7708 18.1772 17.7709 18.0849ZM6.27871 15.1736H7.08767V13.4691H6.27928L6.27871 15.1736ZM9.05486 15.1736H9.86381V11.5132H9.05542L9.05486 15.1736ZM11.831 15.1736H12.64V10.0743H11.8316L11.831 15.1736ZM14.6071 15.1736H15.4161V8.29698H14.6077L14.6071 15.1736ZM4.31209 12.1316H3.50313V15.1736H4.31209V12.1316ZM8.40279 17.6304H3.22006V19.1171H8.40279V17.6304ZM20.1484 18.003V22.9179C20.1479 23.2672 19.9962 23.602 19.7266 23.849C19.457 24.096 19.0915 24.2349 18.7102 24.2353H1.70129V24.282C1.70188 24.4463 1.77349 24.6037 1.90044 24.7198C2.02739 24.8359 2.19936 24.9012 2.37871 24.9014H20.4135C20.5926 24.9009 20.7643 24.8355 20.8909 24.7194C21.0176 24.6034 21.089 24.4461 21.0895 24.282V18.0477C21.0008 18.0534 20.9112 18.057 20.8211 18.057C20.5956 18.0567 20.3705 18.0387 20.1484 18.003ZM24 14.4482C24.0001 15.0241 23.8137 15.5871 23.4645 16.066C23.1153 16.5449 22.619 16.9181 22.0382 17.1385C21.4575 17.3589 20.8185 17.4166 20.202 17.3043C19.5855 17.1919 19.0191 16.9146 18.5747 16.5074C18.1302 16.1001 17.8275 15.5813 17.7049 15.0165C17.5823 14.4516 17.6452 13.8661 17.8858 13.3341C18.1264 12.802 18.5338 12.3473 19.0564 12.0273C19.5791 11.7074 20.1936 11.5367 20.8222 11.5367C21.6647 11.5376 22.4724 11.8446 23.0682 12.3905C23.6639 12.9363 23.999 13.6763 24 14.4482ZM20.1484 13.6203C20.1486 13.4933 20.2037 13.3715 20.3018 13.2816C20.3999 13.1918 20.5328 13.1412 20.6715 13.1411H20.9726C21.1113 13.1412 21.2442 13.1918 21.3423 13.2816C21.4404 13.3715 21.4955 13.4933 21.4957 13.6203C21.4995 13.7104 21.5412 13.7956 21.6121 13.8581C21.683 13.9207 21.7775 13.9556 21.8759 13.9556C21.9743 13.9556 22.0689 13.9207 22.1398 13.8581C22.2107 13.7956 22.2524 13.7104 22.2562 13.6203C22.256 13.3449 22.1505 13.0783 21.958 12.8668C21.7655 12.6553 21.4981 12.5123 21.2025 12.4627V12.1156C21.2044 12.0687 21.196 12.0219 21.1778 11.9781C21.1596 11.9342 21.1319 11.8942 21.0964 11.8604C21.0609 11.8266 21.0183 11.7997 20.9712 11.7813C20.9241 11.763 20.8734 11.7535 20.8222 11.7535C20.771 11.7535 20.7203 11.763 20.6732 11.7813C20.6261 11.7997 20.5835 11.8266 20.548 11.8604C20.5125 11.8942 20.4848 11.9342 20.4666 11.9781C20.4483 12.0219 20.44 12.0687 20.4419 12.1156V12.4627C20.1267 12.5153 19.8444 12.6741 19.6504 12.9078C19.4565 13.1415 19.3649 13.4332 19.3937 13.7255C19.4225 14.0179 19.5696 14.2899 19.8061 14.488C20.0426 14.686 20.3514 14.7959 20.6718 14.7961H20.9729C21.1095 14.799 21.2395 14.8508 21.3351 14.9403C21.4306 15.0299 21.4841 15.1502 21.4841 15.2754C21.4841 15.4007 21.4306 15.5209 21.3351 15.6105C21.2395 15.7001 21.1095 15.7519 20.9729 15.7548H20.6715C20.5328 15.7546 20.3999 15.704 20.3019 15.6142C20.2038 15.5244 20.1487 15.4026 20.1484 15.2756C20.1447 15.1855 20.1029 15.1002 20.032 15.0377C19.9611 14.9752 19.8666 14.9403 19.7682 14.9403C19.6698 14.9403 19.5752 14.9752 19.5043 15.0377C19.4334 15.1002 19.3917 15.1855 19.3879 15.2756C19.3884 15.5509 19.4941 15.8174 19.6867 16.0288C19.8793 16.2402 20.1466 16.3831 20.4422 16.4327V16.7806C20.446 16.8707 20.4877 16.9559 20.5586 17.0184C20.6295 17.0809 20.7241 17.1158 20.8225 17.1158C20.9209 17.1158 21.0154 17.0809 21.0863 17.0184C21.1572 16.9559 21.1989 16.8707 21.2027 16.7806V16.4332C21.518 16.3806 21.8003 16.2218 21.9942 15.9881C22.1882 15.7544 22.2798 15.4627 22.251 15.1704C22.2222 14.878 22.0751 14.606 21.8386 14.4079C21.6021 14.2098 21.2933 14.0999 20.9729 14.0998H20.6715C20.5328 14.0997 20.3998 14.0491 20.3017 13.9592C20.2036 13.8693 20.1485 13.7474 20.1484 13.6203Z" fill="#000000"/>
</svg>
