<svg width="20" height="21" viewBox="0 0 20 21" fill="none" xmlns="http://www.w3.org/2000/svg">
<path d="M10 13C11.3807 13 12.5 11.8807 12.5 10.5C12.5 9.11929 11.3807 8 10 8C8.61929 8 7.5 9.11929 7.5 10.5C7.5 11.8807 8.61929 13 10 13Z" stroke="#292D32" stroke-width="1.5" stroke-miterlimit="10" stroke-linecap="round" stroke-linejoin="round"/>
<path d="M1.66699 11.2329V9.76621C1.66699 8.89954 2.37533 8.18287 3.25033 8.18287C4.75866 8.18287 5.37533 7.11621 4.61699 5.80787C4.18366 5.05787 4.44199 4.08287 5.20033 3.64954L6.64199 2.82454C7.30033 2.43287 8.15033 2.66621 8.54199 3.32454L8.63366 3.48287C9.38366 4.79121 10.617 4.79121 11.3753 3.48287L11.467 3.32454C11.8587 2.66621 12.7087 2.43287 13.367 2.82454L14.8087 3.64954C15.567 4.08287 15.8253 5.05787 15.392 5.80787C14.6337 7.11621 15.2503 8.18287 16.7587 8.18287C17.6253 8.18287 18.342 8.89121 18.342 9.76621V11.2329C18.342 12.0995 17.6337 12.8162 16.7587 12.8162C15.2503 12.8162 14.6337 13.8829 15.392 15.1912C15.8253 15.9495 15.567 16.9162 14.8087 17.3495L13.367 18.1745C12.7087 18.5662 11.8587 18.3329 11.467 17.6745L11.3753 17.5162C10.6253 16.2079 9.39199 16.2079 8.63366 17.5162L8.54199 17.6745C8.15033 18.3329 7.30033 18.5662 6.64199 18.1745L5.20033 17.3495C4.44199 16.9162 4.18366 15.9412 4.61699 15.1912C5.37533 13.8829 4.75866 12.8162 3.25033 12.8162C2.37533 12.8162 1.66699 12.0995 1.66699 11.2329Z" stroke="#292D32" stroke-width="1.5" stroke-miterlimit="10" stroke-linecap="round" stroke-linejoin="round"/>
</svg>
