<svg width="20" height="21" viewBox="0 0 20 21" fill="none" xmlns="http://www.w3.org/2000/svg">
<path d="M10 13C11.3807 13 12.5 11.8807 12.5 10.5C12.5 9.11929 11.3807 8 10 8C8.61929 8 7.5 9.11929 7.5 10.5C7.5 11.8807 8.61929 13 10 13Z" stroke="#292D32" stroke-width="1.5" stroke-miterlimit="10" stroke-linecap="round" stroke-linejoin="round"/>
<path d="M1.6665 11.2329V9.76621C1.6665 8.89954 2.37484 8.18287 3.24984 8.18287C4.75817 8.18287 5.37484 7.11621 4.6165 5.80787C4.18317 5.05787 4.4415 4.08287 5.19984 3.64954L6.6415 2.82454C7.29984 2.43287 8.14984 2.66621 8.5415 3.32454L8.63317 3.48287C9.38317 4.79121 10.6165 4.79121 11.3748 3.48287L11.4665 3.32454C11.8582 2.66621 12.7082 2.43287 13.3665 2.82454L14.8082 3.64954C15.5665 4.08287 15.8248 5.05787 15.3915 5.80787C14.6332 7.11621 15.2498 8.18287 16.7582 8.18287C17.6248 8.18287 18.3415 8.89121 18.3415 9.76621V11.2329C18.3415 12.0995 17.6332 12.8162 16.7582 12.8162C15.2498 12.8162 14.6332 13.8829 15.3915 15.1912C15.8248 15.9495 15.5665 16.9162 14.8082 17.3495L13.3665 18.1745C12.7082 18.5662 11.8582 18.3329 11.4665 17.6745L11.3748 17.5162C10.6248 16.2079 9.3915 16.2079 8.63317 17.5162L8.5415 17.6745C8.14984 18.3329 7.29984 18.5662 6.6415 18.1745L5.19984 17.3495C4.4415 16.9162 4.18317 15.9412 4.6165 15.1912C5.37484 13.8829 4.75817 12.8162 3.24984 12.8162C2.37484 12.8162 1.6665 12.0995 1.6665 11.2329Z" stroke="#292D32" stroke-width="1.5" stroke-miterlimit="10" stroke-linecap="round" stroke-linejoin="round"/>
</svg>
