<svg width="24" height="25" viewBox="0 0 24 25" fill="none" xmlns="http://www.w3.org/2000/svg">
<path d="M15.766 13.6704C15.5841 13.4887 15.4932 13.2575 15.4932 12.9768C15.4932 12.696 15.5841 12.4648 15.766 12.2832L17.6265 10.4253H11.4995C11.2184 10.4253 10.9826 10.3302 10.7921 10.14C10.6016 9.94973 10.5066 9.71456 10.5073 9.43449C10.5073 9.15375 10.6026 8.91825 10.7931 8.72801C10.9836 8.53777 11.2191 8.44298 11.4995 8.44364H17.6265L15.766 6.5858C15.5841 6.40415 15.4932 6.16866 15.4932 5.87933C15.4932 5.59 15.5841 5.35484 15.766 5.17385C15.948 4.99219 16.1795 4.90137 16.4606 4.90137C16.7417 4.90137 16.9732 4.99219 17.1552 5.17385L20.7271 8.74089C20.8263 8.83998 20.8968 8.94732 20.9385 9.06292C20.9801 9.17852 21.0006 9.30237 21 9.43449C21 9.5666 20.9791 9.69045 20.9375 9.80605C20.8958 9.92165 20.8257 10.029 20.7271 10.1281L17.1552 13.6951C16.9732 13.8768 16.7417 13.9636 16.4606 13.9557C16.1795 13.9478 15.948 13.8527 15.766 13.6704ZM5.8439 19.6402L2.27193 16.0732C2.17271 15.9741 2.10226 15.8667 2.06059 15.7511C2.01891 15.6355 1.99874 15.5117 2.00006 15.3796C2.00006 15.2474 2.0209 15.1236 2.06257 15.008C2.10424 14.8924 2.17403 14.7851 2.27193 14.686L5.8439 11.1189C6.02581 10.9373 6.25732 10.8464 6.53845 10.8464C6.81958 10.8464 7.0511 10.9373 7.233 11.1189C7.41491 11.3006 7.50586 11.5361 7.50586 11.8254C7.50586 12.1147 7.41491 12.3499 7.233 12.5309L5.3726 14.3887H11.4995C11.7807 14.3887 12.0165 14.4838 12.207 14.6741C12.3975 14.8643 12.4924 15.0995 12.4917 15.3796C12.4917 15.6603 12.3965 15.8958 12.206 16.086C12.0155 16.2763 11.78 16.3711 11.4995 16.3704H5.3726L7.233 18.2282C7.41491 18.4099 7.50586 18.6411 7.50586 18.9218C7.50586 19.2026 7.41491 19.4338 7.233 19.6154C7.0511 19.7971 6.81958 19.8922 6.53845 19.9008C6.25732 19.9094 6.02581 19.8225 5.8439 19.6402Z" fill="white"/>
</svg>
