<svg width="24" height="25" viewBox="0 0 24 25" fill="none" xmlns="http://www.w3.org/2000/svg">
<path d="M15 2.90137V12.9014C15 14.0014 14.1 14.9014 13 14.9014H2V8.52136C2.73 9.39136 3.85003 9.93137 5.09003 9.90137C6.10003 9.88137 7.01 9.49137 7.69 8.84137C8 8.58137 8.26002 8.25136 8.46002 7.89136C8.82002 7.28136 9.02 6.56134 9 5.81134C8.97 4.64134 8.45001 3.61137 7.64001 2.90137H15Z" stroke="#000000" stroke-width="1.5" stroke-linecap="round" stroke-linejoin="round"/>
<path d="M22 14.9014V17.9014C22 19.5614 20.66 20.9014 19 20.9014H18C18 19.8014 17.1 18.9014 16 18.9014C14.9 18.9014 14 19.8014 14 20.9014H10C10 19.8014 9.1 18.9014 8 18.9014C6.9 18.9014 6 19.8014 6 20.9014H5C3.34 20.9014 2 19.5614 2 17.9014V14.9014H13C14.1 14.9014 15 14.0014 15 12.9014V5.90137H16.84C17.56 5.90137 18.22 6.29138 18.58 6.91138L20.29 9.90137H19C18.45 9.90137 18 10.3514 18 10.9014V13.9014C18 14.4514 18.45 14.9014 19 14.9014H22Z" stroke="#000000" stroke-width="1.5" stroke-linecap="round" stroke-linejoin="round"/>
<path d="M8 22.9014C9.10457 22.9014 10 22.0059 10 20.9014C10 19.7968 9.10457 18.9014 8 18.9014C6.89543 18.9014 6 19.7968 6 20.9014C6 22.0059 6.89543 22.9014 8 22.9014Z" stroke="#000000" stroke-width="1.5" stroke-linecap="round" stroke-linejoin="round"/>
<path d="M16 22.9014C17.1046 22.9014 18 22.0059 18 20.9014C18 19.7968 17.1046 18.9014 16 18.9014C14.8954 18.9014 14 19.7968 14 20.9014C14 22.0059 14.8954 22.9014 16 22.9014Z" stroke="#000000" stroke-width="1.5" stroke-linecap="round" stroke-linejoin="round"/>
<path d="M22 12.9014V14.9014H19C18.45 14.9014 18 14.4514 18 13.9014V10.9014C18 10.3514 18.45 9.90137 19 9.90137H20.29L22 12.9014Z" stroke="#000000" stroke-width="1.5" stroke-linecap="round" stroke-linejoin="round"/>
<path d="M9.00115 5.81112C9.02115 6.56112 8.82117 7.28113 8.46117 7.89113C8.26117 8.25113 8.00115 8.58115 7.69115 8.84115C7.01115 9.49115 6.10118 9.88114 5.09118 9.90114C3.85118 9.93114 2.73115 9.39114 2.00115 8.52114C1.86115 8.37114 1.74115 8.20115 1.63115 8.03115C1.24115 7.44115 1.02115 6.74117 1.00115 5.99117C0.971148 4.73117 1.53114 3.58114 2.43114 2.83114C3.11114 2.27114 3.97112 1.92114 4.91112 1.90114C5.96112 1.88114 6.92116 2.26114 7.64116 2.90114C8.45116 3.61114 8.97115 4.64112 9.00115 5.81112Z" stroke="#000000" stroke-width="1.5" stroke-miterlimit="10" stroke-linecap="round" stroke-linejoin="round"/>
<path d="M3.44141 5.93115L4.45142 6.89111L6.54138 4.87109" stroke="#000000" stroke-width="1.5" stroke-linecap="round" stroke-linejoin="round"/>
</svg>
