<svg width="17" height="16" viewBox="0 0 17 16" fill="none" xmlns="http://www.w3.org/2000/svg">
<path d="M2.53627 3.2587L2.53628 3.25871L2.53731 3.25607C2.66874 2.92204 2.87864 2.60938 3.18181 2.32337L3.18189 2.32345L3.18946 2.316C3.54065 1.97029 3.88661 1.83301 4.22536 1.83301C4.34202 1.83301 4.45412 1.85823 4.549 1.90377L4.54897 1.90382L4.55584 1.90699C4.65489 1.95271 4.73591 2.01702 4.80094 2.11095L4.80091 2.11096L4.80424 2.11566L6.35091 4.29566L6.3509 4.29567L6.35293 4.29849C6.45482 4.44 6.52034 4.55903 6.56259 4.66232L6.56253 4.66235L6.56579 4.66997C6.6063 4.76449 6.6187 4.83684 6.6187 4.87967C6.6187 4.93903 6.60212 5.01003 6.5516 5.09303L6.54739 5.09994L6.54342 5.10698C6.48467 5.21091 6.38916 5.33544 6.25181 5.47279L6.25174 5.47272L6.24504 5.4797L5.74107 6.00355C5.56909 6.17768 5.49203 6.39353 5.49203 6.61967C5.49203 6.72037 5.50542 6.80811 5.52696 6.89428L5.53387 6.92191L5.54387 6.94857C5.55693 6.98341 5.57005 7.01434 5.57836 7.03394C5.57919 7.03591 5.57998 7.03776 5.58071 7.03949C5.58938 7.05997 5.59108 7.06465 5.59109 7.06465L5.6051 7.10669L5.62642 7.14577C5.77004 7.40908 6.00149 7.72552 6.30367 8.08265L6.30365 8.08267L6.30728 8.08686C6.61237 8.43941 6.93952 8.80073 7.29513 9.16318L7.29511 9.16319L7.29848 9.16656C7.33615 9.20423 7.37487 9.24111 7.40861 9.27324L7.41054 9.27508C7.44636 9.30919 7.47687 9.33828 7.50514 9.36656L7.50512 9.36659L7.50965 9.37101C7.57909 9.43872 7.57923 9.54537 7.51181 9.61279L6.27848 10.8461C6.21626 10.9083 6.11472 10.9153 6.03958 10.8468C6.00087 10.8083 5.96286 10.772 5.929 10.7396L5.92727 10.738C5.89033 10.7027 5.85809 10.6719 5.82649 10.6404C5.15756 9.96486 4.55459 9.258 4.01708 8.51985C3.48901 7.78556 3.06943 7.05893 2.76661 6.34664C2.47372 5.63551 2.33203 4.97462 2.33203 4.35967C2.33203 3.9656 2.40146 3.59573 2.53627 3.2587Z" fill="#000000" stroke="#000000"/>
<path d="M14.5311 12.7234L14.5312 12.7234C14.544 12.6978 14.5552 12.6694 14.5755 12.6154C14.6225 12.4824 14.6451 12.3472 14.6451 12.2204C14.6451 12.113 14.6237 12.0121 14.5777 11.8949C14.5464 11.827 14.4926 11.7578 14.3872 11.6848L14.3823 11.6814L14.3823 11.6814L12.1799 10.1177C12.0336 10.0186 11.9129 9.95223 11.8091 9.90979C11.7143 9.871 11.6452 9.86035 11.5918 9.86035C11.5276 9.86035 11.4632 9.87583 11.3784 9.92745L11.3643 9.93602L11.3497 9.94364C11.2577 9.99166 11.1384 10.0808 10.992 10.2272L10.9896 10.2296L10.9896 10.2296L10.4839 10.7286C10.3222 10.8898 10.1108 10.987 9.85844 10.987C9.75971 10.987 9.64261 10.9759 9.51621 10.9285L9.50541 10.9245L9.49481 10.9199C9.4673 10.9081 9.44174 10.8964 9.42364 10.8881C9.42183 10.8873 9.4201 10.8865 9.41844 10.8857C9.39683 10.8758 9.38949 10.8726 9.38608 10.8713L9.36238 10.8618L9.33977 10.8499C9.2753 10.8162 9.20798 10.7776 9.13821 10.7344L7.64891 12.2237C7.75077 12.3009 7.85495 12.3784 7.96142 12.4576C8.69348 12.9904 9.42675 13.4103 10.1544 13.7204C10.8709 14.0256 11.5308 14.167 12.1318 14.167C12.5274 14.167 12.89 14.0928 13.2234 13.9572L13.3093 13.9223C13.613 13.7862 13.8914 13.5813 14.1548 13.2911L14.5311 12.7234ZM14.5311 12.7234L14.5263 12.7335M14.5311 12.7234L14.5263 12.7335M14.5263 12.7335C14.4329 12.9314 14.3131 13.1163 14.1548 13.291L14.5263 12.7335ZM13.1982 13.9698C13.1975 13.9701 13.1985 13.9696 13.1997 13.969L13.1982 13.9698Z" fill="#000000" stroke="#000000"/>
</svg>
