<svg width="17" height="16" viewBox="0 0 17 16" fill="none" xmlns="http://www.w3.org/2000/svg">
<path d="M5.83203 4.49967C5.83203 3.02915 7.02817 1.83301 8.4987 1.83301C9.9689 1.83301 11.1648 3.02863 11.1654 4.49871C11.1592 5.94163 10.0354 7.10493 8.60287 7.15967H8.60285H8.60283H8.6028H8.60278H8.60275H8.60273H8.6027H8.60268H8.60266H8.60263H8.60261H8.60258H8.60256H8.60253H8.60251H8.60248H8.60246H8.60243H8.60241H8.60238H8.60236H8.60233H8.60231H8.60228H8.60226H8.60223H8.6022H8.60218H8.60215H8.60213H8.6021H8.60207H8.60205H8.60202H8.60199H8.60197H8.60194H8.60191H8.60189H8.60186H8.60183H8.60181H8.60178H8.60175H8.60172H8.6017H8.60167H8.60164H8.60161H8.60158H8.60156H8.60153H8.6015H8.60147H8.60144H8.60141H8.60139H8.60136H8.60133H8.6013H8.60127H8.60124H8.60121H8.60118H8.60115H8.60112H8.60109H8.60106H8.60103H8.601H8.60097H8.60094H8.60091H8.60088H8.60085H8.60082H8.60079H8.60076H8.60073H8.60069H8.60066H8.60063H8.6006H8.60057H8.60054H8.6005H8.60047H8.60044H8.60041H8.60038H8.60034H8.60031H8.60028H8.60024H8.60021H8.60018H8.60014H8.60011H8.60008H8.60004H8.60001H8.59998H8.59994H8.59991H8.59987H8.59984H8.5998H8.59977H8.59973H8.5997H8.59966H8.59963H8.59959H8.59956H8.59952H8.59949H8.59945H8.59941H8.59938H8.59934H8.5993H8.59927H8.59923H8.59919H8.59916H8.59912H8.59908H8.59904H8.59901H8.59897H8.59893H8.59889H8.59885H8.59881H8.59878H8.59874H8.5987H8.59862H8.59854H8.59846H8.59839H8.59831H8.59823H8.59815H8.59808H8.598H8.59792H8.59785H8.59777H8.59769H8.59762H8.59754H8.59747H8.59739H8.59732H8.59724H8.59716H8.59709H8.59701H8.59694C8.53046 7.15278 8.46392 7.15357 8.40328 7.15867C6.93853 7.09191 5.83203 5.92945 5.83203 4.49967Z" fill="#000000" stroke="#000000"/>
<path d="M5.39398 13.3112L5.39261 13.3102C4.65366 12.8176 4.30859 12.198 4.30859 11.5863C4.30859 10.9741 4.65404 10.3481 5.39896 9.84917C6.2372 9.2947 7.36207 9.00293 8.51026 9.00293C9.65908 9.00293 10.7803 9.295 11.6112 9.84895C12.3466 10.3392 12.6895 10.9585 12.6953 11.575C12.6945 12.1932 12.3488 12.8125 11.6094 13.3115C10.7752 13.8714 9.65131 14.1663 8.50193 14.1663C7.35231 14.1663 6.2282 13.8713 5.39398 13.3112Z" fill="#000000" stroke="#000000"/>
</svg>
