<svg width="17" height="16" viewBox="0 0 17 16" fill="none" xmlns="http://www.w3.org/2000/svg">
<g clip-path="url(#clip0_1996_278011)">
<path d="M12.4574 6.78369L12.4574 6.7837L12.4607 6.78106C12.8858 6.43565 12.9538 5.80557 12.6121 5.37769C12.2685 4.93193 11.629 4.87424 11.2054 5.21669L9.11999 6.88233L9.11906 6.88307C8.9704 7.0024 8.74545 7.07801 8.49536 7.07801C8.24527 7.07801 8.02033 7.0024 7.87167 6.88307L7.87074 6.88233L5.78544 5.21675C5.34714 4.86235 4.7221 4.95489 4.38397 5.37104L4.3839 5.37099L4.37802 5.37852C4.04519 5.80454 4.11003 6.43436 4.53673 6.78106L4.53672 6.78108L4.53999 6.78369L6.62481 8.44888C7.1598 8.88419 7.842 9.08634 8.4987 9.08634C9.15828 9.08634 9.83219 8.88262 10.3713 8.44994C10.3714 8.4498 10.3716 8.44967 10.3718 8.44953L12.4574 6.78369ZM5.16536 2.83301H11.832C12.7554 2.83301 13.4485 3.06392 13.9085 3.49107C14.3618 3.91199 14.6654 4.59497 14.6654 5.66634V10.333C14.6654 11.4044 14.3618 12.0874 13.9085 12.5083C13.4485 12.9354 12.7554 13.1663 11.832 13.1663H5.16536C4.24201 13.1663 3.54893 12.9354 3.08892 12.5083C2.63562 12.0874 2.33203 11.4044 2.33203 10.333V5.66634C2.33203 4.59497 2.63562 3.91199 3.08892 3.49107C3.54893 3.06392 4.24201 2.83301 5.16536 2.83301Z" fill="#000000" stroke="#000000"/>
</g>
<defs>
<clipPath id="clip0_1996_278011">
<rect width="16" height="16" fill="white" transform="translate(0.5)"/>
</clipPath>
</defs>
</svg>
