<svg width="24" height="25" viewBox="0 0 24 25" fill="none" xmlns="http://www.w3.org/2000/svg">
<path d="M19.3302 6.18027L13.0602 2.80027C12.4002 2.44027 11.6002 2.44027 10.9402 2.80027L4.67018 6.18027C4.21018 6.43027 3.93018 6.91027 3.93018 7.46027C3.93018 8.00027 4.21018 8.49027 4.67018 8.74027L10.9402 12.1203C11.2702 12.3003 11.6402 12.3903 12.0002 12.3903C12.3602 12.3903 12.7302 12.3003 13.0602 12.1203L19.3302 8.74027C19.7902 8.49027 20.0702 8.01027 20.0702 7.46027C20.0702 6.91027 19.7902 6.43027 19.3302 6.18027Z" fill="#4B0082"/>
<path d="M9.91 13.29L4.07 10.37C3.62 10.15 3.1 10.17 2.68 10.43C2.25 10.7 2 11.15 2 11.65V17.16C2 18.11 2.53 18.97 3.38 19.4L9.21 22.32C9.41 22.42 9.63 22.47 9.85 22.47C10.11 22.47 10.37 22.4 10.6 22.26C11.03 22 11.28 21.54 11.28 21.04V15.53C11.29 14.57 10.76 13.71 9.91 13.29Z" fill="#4B0082"/>
<path d="M21.3202 10.4301C20.8902 10.1701 20.3702 10.1401 19.9302 10.3701L14.1002 13.2901C13.2502 13.7201 12.7202 14.5701 12.7202 15.5301V21.0401C12.7202 21.5401 12.9702 22.0001 13.4002 22.2601C13.6302 22.4001 13.8902 22.4701 14.1502 22.4701C14.3702 22.4701 14.5902 22.4201 14.7902 22.3201L20.6202 19.4001C21.4702 18.9701 22.0002 18.1201 22.0002 17.1601V11.6501C22.0002 11.1501 21.7502 10.7001 21.3202 10.4301Z" fill="#4B0082"/>
</svg>
