<svg width="24" height="24" viewBox="0 0 24 24" fill="none" xmlns="http://www.w3.org/2000/svg">
<path d="M14.3517 2H9.65172C8.61172 2 7.76172 2.84 7.76172 3.88V4.82C7.76172 5.86 8.60172 6.7 9.64172 6.7H14.3517C15.3917 6.7 16.2317 5.86 16.2317 4.82V3.88C16.2417 2.84 15.3917 2 14.3517 2Z" fill="white"/>
<path d="M17.2391 4.81998C17.2391 6.40998 15.9391 7.70998 14.3491 7.70998H9.64906C8.05906 7.70998 6.75906 6.40998 6.75906 4.81998C6.75906 4.25998 6.15906 3.90998 5.65906 4.16998C4.24906 4.91998 3.28906 6.40998 3.28906 8.11998V17.53C3.28906 19.99 5.29906 22 7.75906 22H16.2391C18.6991 22 20.7091 19.99 20.7091 17.53V8.11998C20.7091 6.40998 19.7491 4.91998 18.3391 4.16998C17.8391 3.90998 17.2391 4.25998 17.2391 4.81998ZM14.5291 16.69C14.3791 16.84 14.1891 16.91 13.9991 16.91C13.8091 16.91 13.6191 16.84 13.4691 16.69L12.0191 15.24L10.5291 16.73C10.3791 16.88 10.1891 16.95 9.99906 16.95C9.80906 16.95 9.61906 16.88 9.46906 16.73C9.17906 16.44 9.17906 15.96 9.46906 15.67L10.9591 14.18L9.50906 12.73C9.21906 12.44 9.21906 11.96 9.50906 11.67C9.79906 11.38 10.2791 11.38 10.5691 11.67L12.0191 13.12L13.4191 11.72C13.7091 11.43 14.1891 11.43 14.4791 11.72C14.7691 12.01 14.7691 12.49 14.4791 12.78L13.0791 14.18L14.5291 15.63C14.8191 15.92 14.8191 16.39 14.5291 16.69Z" fill="white"/>
</svg>
