<svg width="21" height="20" viewBox="0 0 21 20" fill="none" xmlns="http://www.w3.org/2000/svg">
<path d="M15.6664 5.967C15.6164 5.95866 15.5581 5.95866 15.5081 5.967C14.3581 5.92533 13.4414 4.98366 13.4414 3.81699C13.4414 2.62533 14.3997 1.66699 15.5914 1.66699C16.7831 1.66699 17.7414 2.63366 17.7414 3.81699C17.7331 4.98366 16.8164 5.92533 15.6664 5.967Z" stroke="#FCB706" stroke-width="1.5" stroke-linecap="round" stroke-linejoin="round"/>
<path d="M14.8082 12.0338C15.9499 12.2255 17.2082 12.0255 18.0915 11.4338C19.2665 10.6505 19.2665 9.36713 18.0915 8.58379C17.1999 7.99213 15.9249 7.79212 14.7832 7.99212" stroke="#FCB706" stroke-width="1.5" stroke-linecap="round" stroke-linejoin="round"/>
<path d="M5.63945 5.967C5.68945 5.95866 5.74779 5.95866 5.79779 5.967C6.94779 5.92533 7.86445 4.98366 7.86445 3.81699C7.86445 2.62533 6.90612 1.66699 5.71445 1.66699C4.52279 1.66699 3.56445 2.63366 3.56445 3.81699C3.57279 4.98366 4.48945 5.92533 5.63945 5.967Z" stroke="#FCB706" stroke-width="1.5" stroke-linecap="round" stroke-linejoin="round"/>
<path d="M6.49857 12.0338C5.3569 12.2255 4.09857 12.0255 3.21523 11.4338C2.04023 10.6505 2.04023 9.36713 3.21523 8.58379C4.1069 7.99213 5.3819 7.79212 6.52357 7.99212" stroke="#FCB706" stroke-width="1.5" stroke-linecap="round" stroke-linejoin="round"/>
<path d="M10.6664 12.1916C10.6164 12.1833 10.5581 12.1833 10.5081 12.1916C9.35807 12.1499 8.44141 11.2083 8.44141 10.0416C8.44141 8.84994 9.39974 7.8916 10.5914 7.8916C11.7831 7.8916 12.7414 8.85827 12.7414 10.0416C12.7331 11.2083 11.8164 12.1583 10.6664 12.1916Z" stroke="#FCB706" stroke-width="1.5" stroke-linecap="round" stroke-linejoin="round"/>
<path d="M8.24063 14.8168C7.06563 15.6001 7.06563 16.8835 8.24063 17.6668C9.57396 18.5585 11.7573 18.5585 13.0906 17.6668C14.2656 16.8835 14.2656 15.6001 13.0906 14.8168C11.7656 13.9335 9.57396 13.9335 8.24063 14.8168Z" stroke="#FCB706" stroke-width="1.5" stroke-linecap="round" stroke-linejoin="round"/>
</svg>
