<svg width="24" height="24" viewBox="0 0 24 24" fill="none" xmlns="http://www.w3.org/2000/svg">
<path d="M7.81 2H16.19C19.83 2 22 4.17 22 7.81V16.18C22 19.83 19.83 22 16.19 22H7.82C4.18 22 2.01 19.83 2.01 16.19V7.81C2 4.17 4.17 2 7.81 2ZM15.36 7.15C15.07 6.86 14.59 6.86 14.3 7.15L9.92 11.53V9.1C9.92 8.69 9.58 8.35 9.17 8.35C8.76 8.35 8.42 8.69 8.42 9.1V13.34C8.42 13.44 8.44 13.53 8.48 13.63C8.56 13.81 8.7 13.96 8.89 14.04C8.98 14.08 9.08 14.1 9.18 14.1H13.42C13.83 14.1 14.17 13.76 14.17 13.35C14.17 12.94 13.83 12.6 13.42 12.6H10.99L15.36 8.21C15.65 7.92 15.65 7.45 15.36 7.15ZM5.76 17.22C7.77 17.89 9.88 18.23 12 18.23C14.12 18.23 16.23 17.89 18.24 17.22C18.63 17.09 18.84 16.66 18.71 16.27C18.58 15.88 18.16 15.66 17.76 15.8C14.04 17.04 9.95 17.04 6.23 15.8C5.84 15.67 5.41 15.88 5.28 16.27C5.16 16.67 5.37 17.09 5.76 17.22Z" fill="white"/>
</svg>
